<svg width="20" height="20" viewBox="0 0 20 20" fill="none" xmlns="http://www.w3.org/2000/svg">
<path d="M9.37542 19.3337C9.14411 19.3337 8.9475 19.2637 8.78558 19.1239C8.6468 18.9608 8.57741 18.7627 8.57741 18.5297V11.2588H1.46464C1.23333 11.2588 1.03672 11.1888 0.874804 11.049C0.736019 10.8859 0.666626 10.6878 0.666626 10.4548V9.33616C0.666626 9.10311 0.736019 8.91668 0.874804 8.77686C1.03672 8.61373 1.23333 8.53216 1.46464 8.53216H8.57741V1.47099C8.57741 1.23795 8.6468 1.05151 8.78558 0.911687C8.9475 0.748557 9.14411 0.666992 9.37542 0.666992H10.5898C10.8211 0.666992 11.0062 0.748557 11.1449 0.911687C11.3069 1.05151 11.3878 1.23795 11.3878 1.47099V8.53216H18.5353C18.7666 8.53216 18.9516 8.61373 19.0904 8.77686C19.2523 8.91668 19.3333 9.10311 19.3333 9.33616V10.4548C19.3333 10.6878 19.2523 10.8859 19.0904 11.049C18.9516 11.1888 18.7666 11.2588 18.5353 11.2588H11.3878V18.5297C11.3878 18.7627 11.3069 18.9608 11.1449 19.1239C11.0062 19.2637 10.8211 19.3337 10.5898 19.3337H9.37542Z" fill="white"/>
</svg>
